<svg width="158" height="79" viewBox="0 0 158 79" fill="none" xmlns="http://www.w3.org/2000/svg">
<path d="M8.4292 22.2456V22.1412C8.4292 12.7248 15.8851 4.9856 26.0751 4.9856C32.1343 4.9856 35.79 6.59656 39.3037 9.53855L34.6463 15.0866C32.0492 12.9539 29.7385 11.7069 25.8427 11.7069C20.4547 11.7069 16.1743 16.4125 16.1743 22.0547V22.1412C16.1743 28.2084 20.4083 32.6647 26.372 32.6647C29.0647 32.6647 31.4708 32.003 33.3426 30.672V25.9434H25.8918V19.6395H40.5145V34.0568C37.0525 36.9479 32.2918 39.3198 26.1319 39.3198C15.645 39.3198 8.4292 32.0666 8.4292 22.2481" fill="white"/>
<path d="M47.6788 22.2456V22.1412C47.6788 12.702 55.2303 4.97543 65.6217 4.97543C76.013 4.97543 83.4664 12.6103 83.4664 22.0445V22.1412C83.4664 31.578 75.9149 39.3071 65.5236 39.3071C55.1322 39.3071 47.6763 31.6722 47.6763 22.2354L47.6788 22.2456ZM75.7213 22.2354V22.1412C75.7213 16.4507 71.4899 11.7069 65.5236 11.7069C59.5573 11.7069 55.4214 16.354 55.4214 22.042V22.1412C55.4214 27.8293 59.6554 32.5756 65.6191 32.5756C71.5828 32.5756 75.7213 27.9285 75.7213 22.238" fill="white"/>
<path d="M91.5909 5.5531H99.0004V32.1099H115.787V38.7471H91.5909V5.5531Z" fill="white"/>
<path d="M123.934 5.5531H149.571V12.1929H131.341V19.2603H146.444V25.8976H131.341V38.7471H123.934V5.5531Z" fill="white"/>
<path d="M8.42925 58.9084V58.8448C8.42925 52.5867 13.0918 47.0463 20.0469 47.0463C23.9453 47.0463 26.3592 48.1534 28.6749 50.0774L26.9891 52.0319C25.2026 50.5049 23.2198 49.4259 19.9462 49.4259C14.8112 49.4259 11.14 53.6989 11.14 58.7888V58.855C11.14 64.2961 14.677 68.3375 20.2973 68.3375C22.7199 68.3267 25.0699 67.5208 26.9762 66.0471V60.3769H19.9333V58.0635H29.4856V67.1567C26.9236 69.399 23.6176 70.6392 20.1915 70.6433C12.9188 70.6433 8.42151 65.4286 8.42151 58.911" fill="white"/>
<path d="M42.9776 47.2779H45.4379L55.9713 70.2412H53.1624L50.4542 64.2121H37.8555L35.1111 70.2412H32.4339L42.9776 47.2779ZM49.4318 61.9089L44.1755 50.2733L38.8804 61.9089H49.4318Z" fill="white"/>
<path d="M60.0865 47.4382H62.6966V67.8718H75.6878L74.5828 70.2488H60.0865V47.4382Z" fill="white"/>
<path d="M88.2321 47.2779H90.677L101.223 70.2412H98.4117L95.7035 64.2223H83.1074L80.3631 70.2412H77.6859L88.2321 47.2779ZM94.6863 61.9089L89.43 50.2733L84.1401 61.9089H94.6863Z" fill="white"/>
<path d="M112.518 58.6157L103.952 47.4382H107.027L114.137 56.7605L121.177 47.4382H124.218L115.658 58.5827L124.549 70.2513H121.443L114.034 60.443L106.629 70.2513H103.624L112.518 58.6157Z" fill="white"/>
<path d="M137.305 61.2243L127.686 47.4382H130.859L138.66 58.8448L146.527 47.4382H149.571L139.949 61.1913V70.2513H137.305V61.2243Z" fill="white"/>
</svg>
